<mxfile host="Electron" agent="Mozilla/5.0 (Windows NT 10.0; Win64; x64) AppleWebKit/537.36 (KHTML, like Gecko) draw.io/24.7.17 Chrome/128.0.6613.36 Electron/32.0.1 Safari/537.36" version="24.7.17">
  <diagram name="Página-1" id="RTlkxNw4YzHTPLM2SJ8g">
    <mxGraphModel dx="1571" dy="924" grid="1" gridSize="10" guides="1" tooltips="1" connect="1" arrows="1" fold="1" page="1" pageScale="1" pageWidth="827" pageHeight="1169" math="0" shadow="0">
      <root>
        <mxCell id="0" />
        <mxCell id="1" parent="0" />
        <mxCell id="hOx2-N5_K6OKmJTdrSzj-3" value="" style="edgeStyle=orthogonalEdgeStyle;rounded=0;orthogonalLoop=1;jettySize=auto;html=1;sketch=1;curveFitting=1;jiggle=2;" edge="1" parent="1" source="hOx2-N5_K6OKmJTdrSzj-1" target="hOx2-N5_K6OKmJTdrSzj-2">
          <mxGeometry relative="1" as="geometry" />
        </mxCell>
        <mxCell id="hOx2-N5_K6OKmJTdrSzj-1" value="Inicio da operação" style="rounded=0;whiteSpace=wrap;html=1;fillColor=#647687;fontColor=#ffffff;strokeColor=#314354;sketch=1;curveFitting=1;jiggle=2;" vertex="1" parent="1">
          <mxGeometry x="223" y="60" width="120" height="60" as="geometry" />
        </mxCell>
        <mxCell id="hOx2-N5_K6OKmJTdrSzj-5" value="" style="edgeStyle=orthogonalEdgeStyle;rounded=0;orthogonalLoop=1;jettySize=auto;html=1;sketch=1;curveFitting=1;jiggle=2;" edge="1" parent="1" source="hOx2-N5_K6OKmJTdrSzj-2" target="hOx2-N5_K6OKmJTdrSzj-4">
          <mxGeometry relative="1" as="geometry" />
        </mxCell>
        <mxCell id="hOx2-N5_K6OKmJTdrSzj-2" value="Cria memoria virtual aleatoria" style="rounded=0;whiteSpace=wrap;html=1;sketch=1;curveFitting=1;jiggle=2;" vertex="1" parent="1">
          <mxGeometry x="223" y="200" width="120" height="60" as="geometry" />
        </mxCell>
        <mxCell id="hOx2-N5_K6OKmJTdrSzj-8" value="" style="edgeStyle=orthogonalEdgeStyle;rounded=0;orthogonalLoop=1;jettySize=auto;html=1;sketch=1;curveFitting=1;jiggle=2;" edge="1" parent="1" source="hOx2-N5_K6OKmJTdrSzj-4" target="hOx2-N5_K6OKmJTdrSzj-7">
          <mxGeometry relative="1" as="geometry" />
        </mxCell>
        <mxCell id="hOx2-N5_K6OKmJTdrSzj-4" value="Acessa posicoes aleatrias da memoria virtual" style="rounded=0;whiteSpace=wrap;html=1;sketch=1;curveFitting=1;jiggle=2;" vertex="1" parent="1">
          <mxGeometry x="223" y="320" width="120" height="60" as="geometry" />
        </mxCell>
        <mxCell id="hOx2-N5_K6OKmJTdrSzj-9" style="edgeStyle=orthogonalEdgeStyle;rounded=0;orthogonalLoop=1;jettySize=auto;html=1;exitX=1;exitY=0.5;exitDx=0;exitDy=0;entryX=0.5;entryY=0;entryDx=0;entryDy=0;sketch=1;curveFitting=1;jiggle=2;" edge="1" parent="1" source="hOx2-N5_K6OKmJTdrSzj-7" target="hOx2-N5_K6OKmJTdrSzj-11">
          <mxGeometry relative="1" as="geometry">
            <mxPoint x="413" y="470.2631578947369" as="targetPoint" />
          </mxGeometry>
        </mxCell>
        <mxCell id="hOx2-N5_K6OKmJTdrSzj-10" value="Não" style="edgeLabel;html=1;align=center;verticalAlign=middle;resizable=0;points=[];" vertex="1" connectable="0" parent="hOx2-N5_K6OKmJTdrSzj-9">
          <mxGeometry x="-0.5835" y="-2" relative="1" as="geometry">
            <mxPoint as="offset" />
          </mxGeometry>
        </mxCell>
        <mxCell id="hOx2-N5_K6OKmJTdrSzj-13" style="edgeStyle=orthogonalEdgeStyle;rounded=0;orthogonalLoop=1;jettySize=auto;html=1;exitX=0.5;exitY=1;exitDx=0;exitDy=0;entryX=0.5;entryY=0;entryDx=0;entryDy=0;sketch=1;curveFitting=1;jiggle=2;" edge="1" parent="1" source="hOx2-N5_K6OKmJTdrSzj-7" target="hOx2-N5_K6OKmJTdrSzj-15">
          <mxGeometry relative="1" as="geometry">
            <mxPoint x="283" y="590" as="targetPoint" />
          </mxGeometry>
        </mxCell>
        <mxCell id="hOx2-N5_K6OKmJTdrSzj-31" value="Sim" style="edgeLabel;html=1;align=center;verticalAlign=middle;resizable=0;points=[];" vertex="1" connectable="0" parent="hOx2-N5_K6OKmJTdrSzj-13">
          <mxGeometry x="-0.6556" y="2" relative="1" as="geometry">
            <mxPoint as="offset" />
          </mxGeometry>
        </mxCell>
        <mxCell id="hOx2-N5_K6OKmJTdrSzj-7" value="Foi alocado algo na memoria fisica?" style="rhombus;whiteSpace=wrap;html=1;rounded=0;sketch=1;curveFitting=1;jiggle=2;" vertex="1" parent="1">
          <mxGeometry x="243" y="430" width="80" height="80" as="geometry" />
        </mxCell>
        <mxCell id="hOx2-N5_K6OKmJTdrSzj-24" style="edgeStyle=orthogonalEdgeStyle;rounded=0;orthogonalLoop=1;jettySize=auto;html=1;exitX=0.5;exitY=1;exitDx=0;exitDy=0;entryX=0.5;entryY=0;entryDx=0;entryDy=0;" edge="1" parent="1" source="hOx2-N5_K6OKmJTdrSzj-11" target="hOx2-N5_K6OKmJTdrSzj-22">
          <mxGeometry relative="1" as="geometry" />
        </mxCell>
        <mxCell id="hOx2-N5_K6OKmJTdrSzj-11" value="Trata page fault" style="rounded=0;whiteSpace=wrap;html=1;sketch=1;curveFitting=1;jiggle=2;" vertex="1" parent="1">
          <mxGeometry x="443" y="585" width="120" height="60" as="geometry" />
        </mxCell>
        <mxCell id="hOx2-N5_K6OKmJTdrSzj-16" style="edgeStyle=orthogonalEdgeStyle;rounded=0;orthogonalLoop=1;jettySize=auto;html=1;exitX=1;exitY=0.5;exitDx=0;exitDy=0;entryX=0;entryY=0.5;entryDx=0;entryDy=0;sketch=1;curveFitting=1;jiggle=2;" edge="1" parent="1" source="hOx2-N5_K6OKmJTdrSzj-15" target="hOx2-N5_K6OKmJTdrSzj-11">
          <mxGeometry relative="1" as="geometry" />
        </mxCell>
        <mxCell id="hOx2-N5_K6OKmJTdrSzj-17" value="Não" style="edgeLabel;html=1;align=center;verticalAlign=middle;resizable=0;points=[];" vertex="1" connectable="0" parent="hOx2-N5_K6OKmJTdrSzj-16">
          <mxGeometry x="-0.8407" y="-3" relative="1" as="geometry">
            <mxPoint x="11" y="-3" as="offset" />
          </mxGeometry>
        </mxCell>
        <mxCell id="hOx2-N5_K6OKmJTdrSzj-19" style="edgeStyle=orthogonalEdgeStyle;rounded=0;orthogonalLoop=1;jettySize=auto;html=1;exitX=0.5;exitY=1;exitDx=0;exitDy=0;entryX=0.5;entryY=0;entryDx=0;entryDy=0;sketch=1;curveFitting=1;jiggle=2;" edge="1" parent="1" source="hOx2-N5_K6OKmJTdrSzj-15" target="hOx2-N5_K6OKmJTdrSzj-18">
          <mxGeometry relative="1" as="geometry" />
        </mxCell>
        <mxCell id="hOx2-N5_K6OKmJTdrSzj-20" value="Sim" style="edgeLabel;html=1;align=center;verticalAlign=middle;resizable=0;points=[];" vertex="1" connectable="0" parent="hOx2-N5_K6OKmJTdrSzj-19">
          <mxGeometry x="-0.7068" y="-2" relative="1" as="geometry">
            <mxPoint as="offset" />
          </mxGeometry>
        </mxCell>
        <mxCell id="hOx2-N5_K6OKmJTdrSzj-15" value="Tabela de referencia com posicoes corretas?" style="rhombus;whiteSpace=wrap;html=1;rounded=0;sketch=1;curveFitting=1;jiggle=2;" vertex="1" parent="1">
          <mxGeometry x="233" y="570" width="100" height="90" as="geometry" />
        </mxCell>
        <mxCell id="hOx2-N5_K6OKmJTdrSzj-25" style="edgeStyle=orthogonalEdgeStyle;rounded=0;orthogonalLoop=1;jettySize=auto;html=1;exitX=1;exitY=0.5;exitDx=0;exitDy=0;entryX=0;entryY=0.5;entryDx=0;entryDy=0;sketch=1;curveFitting=1;jiggle=2;" edge="1" parent="1" source="hOx2-N5_K6OKmJTdrSzj-18" target="hOx2-N5_K6OKmJTdrSzj-22">
          <mxGeometry relative="1" as="geometry" />
        </mxCell>
        <mxCell id="hOx2-N5_K6OKmJTdrSzj-18" value="Acessa memoria fisica" style="rounded=0;whiteSpace=wrap;html=1;sketch=1;curveFitting=1;jiggle=2;" vertex="1" parent="1">
          <mxGeometry x="223" y="730" width="120" height="60" as="geometry" />
        </mxCell>
        <mxCell id="hOx2-N5_K6OKmJTdrSzj-26" style="edgeStyle=orthogonalEdgeStyle;rounded=0;orthogonalLoop=1;jettySize=auto;html=1;exitX=1;exitY=0.5;exitDx=0;exitDy=0;entryX=1;entryY=0.5;entryDx=0;entryDy=0;sketch=1;curveFitting=1;jiggle=2;" edge="1" parent="1" source="hOx2-N5_K6OKmJTdrSzj-22" target="hOx2-N5_K6OKmJTdrSzj-4">
          <mxGeometry relative="1" as="geometry">
            <mxPoint x="644.0526315789474" y="350" as="targetPoint" />
            <Array as="points">
              <mxPoint x="603" y="760" />
              <mxPoint x="603" y="350" />
            </Array>
          </mxGeometry>
        </mxCell>
        <mxCell id="hOx2-N5_K6OKmJTdrSzj-27" value="Não" style="edgeLabel;html=1;align=center;verticalAlign=middle;resizable=0;points=[];" vertex="1" connectable="0" parent="hOx2-N5_K6OKmJTdrSzj-26">
          <mxGeometry x="-0.9396" y="2" relative="1" as="geometry">
            <mxPoint as="offset" />
          </mxGeometry>
        </mxCell>
        <mxCell id="hOx2-N5_K6OKmJTdrSzj-28" style="edgeStyle=orthogonalEdgeStyle;rounded=0;orthogonalLoop=1;jettySize=auto;html=1;exitX=0.5;exitY=1;exitDx=0;exitDy=0;entryX=0.5;entryY=0;entryDx=0;entryDy=0;sketch=1;curveFitting=1;jiggle=2;" edge="1" parent="1" source="hOx2-N5_K6OKmJTdrSzj-22" target="hOx2-N5_K6OKmJTdrSzj-30">
          <mxGeometry relative="1" as="geometry">
            <mxPoint x="502.9473684210527" y="890" as="targetPoint" />
          </mxGeometry>
        </mxCell>
        <mxCell id="hOx2-N5_K6OKmJTdrSzj-29" value="Sim" style="edgeLabel;html=1;align=center;verticalAlign=middle;resizable=0;points=[];" vertex="1" connectable="0" parent="hOx2-N5_K6OKmJTdrSzj-28">
          <mxGeometry x="-0.6794" y="4" relative="1" as="geometry">
            <mxPoint as="offset" />
          </mxGeometry>
        </mxCell>
        <mxCell id="hOx2-N5_K6OKmJTdrSzj-22" value="Rodou N vezes?" style="rhombus;whiteSpace=wrap;html=1;rounded=0;sketch=1;curveFitting=1;jiggle=2;" vertex="1" parent="1">
          <mxGeometry x="463" y="720" width="80" height="80" as="geometry" />
        </mxCell>
        <mxCell id="hOx2-N5_K6OKmJTdrSzj-30" value="Fim da operação" style="ellipse;whiteSpace=wrap;html=1;fillColor=#e51400;fontColor=#ffffff;strokeColor=#B20000;sketch=1;curveFitting=1;jiggle=2;" vertex="1" parent="1">
          <mxGeometry x="443" y="880" width="120" height="80" as="geometry" />
        </mxCell>
      </root>
    </mxGraphModel>
  </diagram>
</mxfile>
